<?xml version="1.0" encoding="utf-8"?>
<!-- Generator: Adobe Illustrator 16.0.0, SVG Export Plug-In . SVG Version: 6.00 Build 0)  -->
<!DOCTYPE svg PUBLIC "-//W3C//DTD SVG 1.1//EN" "http://www.w3.org/Graphics/SVG/1.1/DTD/svg11.dtd">
<svg version="1.1" id="Layer_1" xmlns="http://www.w3.org/2000/svg" xmlns:xlink="http://www.w3.org/1999/xlink" x="0px" y="0px"
	 width="415.761px" height="146.739px" viewBox="0 0 415.761 146.739" enable-background="new 0 0 415.761 146.739"
	 xml:space="preserve">
<g>
	<path d="M54.329,49.591c6.142,0,9.904,1.715,9.904,1.715c0,0.332-0.11,0.553-0.332,0.719c0,0-4.205-1.604-9.406-1.604
		c-7.802,0-13.944,4.537-13.944,19.643c0,15.105,6.031,19.644,13.944,19.644c4.039,0,7.581-0.83,9.573-1.494V70.507H52.503v-0.83
		h12.339v19.145c0,0-4.094,1.716-10.513,1.716c-9.406,0-14.608-6.474-14.608-20.474C39.721,56.397,44.978,49.591,54.329,49.591z"/>
	<path d="M75.629,89.874c0,0-0.056,0.11-0.388,0.11s-0.387-0.11-0.387-0.11V48.595c0,0,0.055-0.111,0.387-0.111
		s0.388,0.111,0.388,0.111V89.874z"/>
	<path d="M96.156,60.326c6.916,0,10.956,4.15,10.956,15.106c0,10.957-4.04,15.106-10.956,15.106
		c-6.917,0-10.956-4.149-10.956-15.106C85.2,64.476,89.239,60.326,96.156,60.326z M96.156,61.101
		c-6.253,0-10.182,3.541-10.182,14.331s3.929,14.332,10.182,14.332c6.252,0,10.181-3.542,10.181-14.332
		S102.408,61.101,96.156,61.101z"/>
	<path d="M117.18,67.409c1.881-4.538,5.81-7.083,10.015-7.083c6.973,0,10.624,5.202,10.624,15.106s-3.763,15.106-11.011,15.106
		c-4.593,0-8.134-3.154-9.628-7.36v6.696c0,0-0.056,0.11-0.388,0.11s-0.442-0.11-0.442-0.11V48.595c0,0,0.11-0.111,0.442-0.111
		c0.276,0,0.388,0.111,0.388,0.111V67.409z M127.14,61.156c-5.699,0-9.794,5.201-9.96,9.905v7.857c0,4.814,3.596,10.79,9.572,10.79
		c6.751,0,10.237-4.87,10.237-14.276C136.989,66.025,133.613,61.156,127.14,61.156z"/>
	<path d="M156.021,60.326c6.087,0,8.909,2.656,8.909,9.352V89.93c-0.222,0.109-0.498,0.109-0.72,0v-7.415
		c-1.106,4.869-5.754,8.023-10.68,8.023c-5.644,0-8.576-2.988-8.576-8.134c0-4.925,3.431-8.356,10.07-8.356
		c3.32,0,6.973,0.333,9.13,0.608v-4.979c0-5.866-2.047-8.577-8.244-8.577c-4.593,0-8.41,1.494-8.41,1.494
		c-0.222-0.11-0.332-0.498-0.332-0.775C147.168,61.819,151.483,60.326,156.021,60.326z M155.246,74.712
		c-6.087,0-9.518,2.877-9.518,7.692c0,4.592,2.601,7.359,7.526,7.359c6.03,0,10.899-4.096,10.899-11.344v-3.099
		C162.052,74.989,158.511,74.712,155.246,74.712z"/>
	<path d="M176.436,89.874c0,0-0.056,0.11-0.388,0.11s-0.388-0.11-0.388-0.11V48.595c0,0,0.056-0.111,0.388-0.111
		s0.388,0.111,0.388,0.111V89.874z"/>
	<path d="M198.622,49.591c6.64,0,10.846,1.549,10.846,1.549c0,1.605-0.498,3.32-1.55,4.426c0,0-3.763-1.217-8.521-1.217
		c-5.865,0-8.688,2.268-8.688,6.308c0,4.261,4.759,5.256,9.905,6.917c5.146,1.771,10.347,4.15,10.347,11.398
		c0,7.416-4.813,11.565-13.888,11.565c-7.305,0-11.952-2.324-11.952-2.324c-0.056-1.494,0.498-3.21,1.328-4.481
		c0,0,5.201,1.715,10.347,1.715c5.699,0,8.411-2.158,8.411-6.308c0-3.929-3.154-5.312-6.973-6.529
		c-5.754-1.937-13.113-3.32-13.113-11.675C185.121,54.128,189.603,49.591,198.622,49.591z"/>
	<path d="M228.555,60.326c7.637,0,12.283,4.15,12.283,15.106c0,10.957-4.703,15.106-12.283,15.106
		c-7.582,0-12.286-4.149-12.286-15.106C216.27,64.476,220.974,60.326,228.555,60.326z M228.555,64.586
		c-4.041,0-6.64,2.324-6.64,10.845c0,8.521,2.6,10.846,6.64,10.846c4.039,0,6.584-2.324,6.584-10.846
		C235.139,66.911,232.594,64.586,228.555,64.586z"/>
	<path d="M247.42,61.267c0,0,0.939-0.387,2.768-0.387c1.879,0,2.766,0.387,2.766,0.387v19.919c0,3.099,1.604,4.87,5.146,4.87
		c2.434,0,4.758-1.272,6.252-3.541V61.267c0,0,0.996-0.387,2.766-0.387c1.938,0,2.768,0.387,2.768,0.387v28.331
		c0,0-0.83,0.387-2.768,0.387c-1.77,0-2.766-0.387-2.766-0.387v-2.546c-1.992,2.269-4.924,3.486-8.355,3.486
		c-5.533,0-8.576-3.376-8.576-8.355V61.267z"/>
	<path d="M283.659,89.598c0,0-0.939,0.387-2.766,0.387c-1.936,0-2.766-0.387-2.766-0.387V48.872c0,0,0.83-0.388,2.766-0.388
		c1.826,0,2.766,0.388,2.766,0.388V89.598z"/>
	<path d="M210.999,102.229c2.029,0,2.97,0.886,2.97,3.117v6.751c-0.073,0.037-0.167,0.037-0.239,0v-2.472
		c-0.37,1.623-1.919,2.675-3.561,2.675c-1.881,0-2.858-0.996-2.858-2.712c0-1.642,1.143-2.785,3.356-2.785
		c1.106,0,2.324,0.11,3.044,0.202v-1.659c0-1.956-0.683-2.858-2.748-2.858c-1.531,0-2.804,0.498-2.804,0.498
		c-0.073-0.037-0.111-0.166-0.111-0.26C208.048,102.727,209.487,102.229,210.999,102.229z M210.74,107.025
		c-2.028,0-3.172,0.959-3.172,2.563c0,1.53,0.867,2.453,2.509,2.453c2.011,0,3.634-1.364,3.634-3.781v-1.032
		C213.01,107.117,211.829,107.025,210.74,107.025z"/>
	<path d="M224.37,102.229c0.792,0,1.291,0.239,1.493,0.368c-0.018,0.093-0.092,0.203-0.165,0.24c-0.369-0.221-0.794-0.35-1.421-0.35
		c-1.347,0-2.25,1.069-2.896,2.821v6.788c-0.074,0.037-0.185,0.037-0.259,0v-9.665c0.074-0.036,0.185-0.036,0.259,0v2.286
		C222.193,102.672,223.338,102.229,224.37,102.229z"/>
	<path d="M231.709,107.265c0,3.136,1.219,4.759,3.541,4.759c1.236,0,2.049-0.498,2.049-0.498c0.092,0.037,0.146,0.147,0.166,0.24
		c0,0-0.85,0.535-2.232,0.535c-2.49,0-3.799-1.734-3.799-5.036s1.289-5.035,3.744-5.035c1.309,0,2.047,0.405,2.047,0.405
		c0,0.111-0.055,0.203-0.129,0.24c0,0-0.701-0.369-1.846-0.369C232.928,102.506,231.709,104.129,231.709,107.265z"/>
	<path d="M250.504,112.079c-0.074,0.056-0.186,0.056-0.26,0v-7.12c0-1.586-0.977-2.471-2.562-2.471c-1.42,0-2.785,0.664-3.596,2.766
		v6.825c-0.076,0.056-0.186,0.056-0.26,0v-13.76c0.074-0.056,0.184-0.056,0.26,0v6.363c0.754-1.679,2.027-2.453,3.631-2.453
		c1.717,0,2.787,1.032,2.787,2.712V112.079z"/>
	<path d="M258.122,99.684c0,0-0.094,0.074-0.26,0.074c-0.148,0-0.258-0.074-0.258-0.074v-0.368c0,0,0.109-0.074,0.258-0.074
		c0.166,0,0.26,0.074,0.26,0.074V99.684z M257.991,112.079c0,0-0.02,0.036-0.129,0.036c-0.111,0-0.129-0.036-0.129-0.036v-9.628
		c0,0,0.018-0.037,0.129-0.037c0.109,0,0.129,0.037,0.129,0.037V112.079z"/>
	<path d="M271.823,102.414c0.092,0,0.131,0.037,0.131,0.037l-3.838,9.738h-0.02l-3.891-9.738c0,0,0.037-0.037,0.148-0.037
		c0.074,0,0.129,0.037,0.129,0.037l2.988,7.451l0.645,1.697l0.607-1.643l2.953-7.506
		C271.676,102.451,271.731,102.414,271.823,102.414z"/>
	<path d="M277.928,107.339c0.092,3.245,1.068,4.685,3.375,4.685c1.604,0,2.582-0.812,2.582-0.812
		c0.092,0.019,0.166,0.11,0.166,0.202c0,0-0.941,0.887-2.805,0.887c-2.453,0-3.598-1.753-3.598-5.092
		c0-3.485,1.551-4.979,3.689-4.979c2.178,0,3.209,1.513,3.209,3.302c0,1.125-0.201,1.808-0.201,1.808H277.928z M281.338,102.506
		c-2.047,0-3.357,1.439-3.41,4.557h6.215c0,0.036,0.129-0.572,0.129-1.586C284.272,103.926,283.385,102.506,281.338,102.506z"/>
</g>
<g>
	<path fill-rule="evenodd" clip-rule="evenodd" d="M348.398,90.254c-1.441-0.517-1.712-0.412-2.439,0.904
		c-1.512,2.732-3.026,5.466-4.537,8.2c-0.647,1.172-0.494,1.673,0.685,2.302c0.311,0.165,0.617,0.336,1.011,0.551
		c-0.485,0.876-0.993,1.705-1.407,2.58c-0.167,0.354-0.269,0.86-0.141,1.199c0.112,0.297,0.588,0.629,0.902,0.629
		c0.353,0,0.828-0.274,1.031-0.577c0.573-0.854,1.034-1.782,1.574-2.743c0.465,0.251,0.896,0.499,1.34,0.721
		c0.742,0.366,1.323,0.215,1.729-0.514c1.681-3.015,3.347-6.037,5.005-9.063c0.375-0.687,0.204-1.256-0.443-1.696
		c-0.162-0.11-0.33-0.214-0.552-0.354c0.442-0.796,0.867-1.561,1.293-2.325c1.064-1.916,2.141-3.826,3.193-5.748
		c1.329-2.429,2.059-4.996,2.038-7.803c-0.043-5.396,0.013-10.792,0.03-16.188c0-0.219,0.019-0.438,0.037-0.819
		c0.259,0.308,0.438,0.497,0.591,0.707c5.077,6.964,7.348,14.731,6.53,23.33c-1.381,14.536-11.688,26.312-25.915,29.691
		c-18.689,4.438-37.663-8.074-40.835-27.021c-3.261-19.477,9.83-35.827,26.864-38.94c10.34-1.892,19.709,0.517,27.894,7.212
		c0.253,0.208,0.5,0.605,0.501,0.915c0.012,6.682-0.079,13.365,0.004,20.046c0.034,2.823-0.612,5.356-2.041,7.766
		C350.966,85.53,349.705,87.911,348.398,90.254z M332.227,67.854c-6.901-0.019-12.531,5.575-12.549,12.469
		c-0.019,6.908,5.552,12.536,12.448,12.574c6.906,0.037,12.553-5.545,12.579-12.438C344.733,73.481,339.179,67.872,332.227,67.854z
		 M321.142,51.475c-0.474,0.17-0.762,0.257-1.037,0.374c-7.39,3.168-12.75,8.413-16.085,15.728
		c-0.094,0.205-0.193,0.416-0.232,0.634c-0.108,0.598,0.123,1.045,0.692,1.27c0.551,0.217,0.987-0.002,1.31-0.456
		c0.13-0.182,0.203-0.404,0.297-0.609c3.069-6.708,7.987-11.529,14.758-14.46c0.254-0.11,0.602-0.17,0.728-0.368
		c0.223-0.347,0.487-0.825,0.403-1.167C321.882,52.047,321.417,51.765,321.142,51.475z M323.885,57.278
		c0.024-0.869-0.815-1.361-1.73-0.982c-4.31,1.785-7.947,4.48-10.683,8.265c-1.186,1.641-2.109,3.479-3.064,5.274
		c-0.17,0.32-0.024,0.952,0.202,1.286c0.158,0.234,0.76,0.364,1.06,0.255c0.341-0.126,0.661-0.524,0.826-0.88
		c1.023-2.211,2.3-4.251,3.921-6.072c2.369-2.661,5.208-4.662,8.495-6.026C323.437,58.181,323.842,57.897,323.885,57.278z
		 M313.818,73.392c0.624,0.003,0.938-0.381,1.173-0.899c2.014-4.471,5.291-7.652,9.794-9.578c0.161-0.07,0.388-0.122,0.454-0.25
		c0.183-0.355,0.482-0.8,0.39-1.106c-0.104-0.352-0.545-0.659-0.91-0.856c-0.182-0.099-0.536,0.045-0.782,0.15
		c-5.065,2.158-8.734,5.749-11.009,10.762c-0.072,0.159-0.143,0.327-0.172,0.498C312.644,72.771,313.157,73.378,313.818,73.392z"/>
	<path fill-rule="evenodd" clip-rule="evenodd" fill="#FFFFFF" d="M332.227,67.854c6.952,0.018,12.506,5.628,12.479,12.605
		c-0.026,6.894-5.673,12.476-12.579,12.438c-6.896-0.038-12.467-5.666-12.448-12.574C319.696,73.428,325.326,67.834,332.227,67.854z
		 M342.008,80.414c0.019-5.432-4.325-9.831-9.753-9.879c-5.389-0.048-9.842,4.354-9.874,9.762c-0.032,5.478,4.32,9.876,9.791,9.892
		C337.611,90.202,341.991,85.85,342.008,80.414z"/>
	<path fill-rule="evenodd" clip-rule="evenodd" fill="#FFFFFF" d="M321.142,51.475c0.274,0.29,0.74,0.572,0.833,0.946
		c0.084,0.342-0.181,0.821-0.403,1.167c-0.126,0.197-0.474,0.258-0.728,0.368c-6.771,2.931-11.688,7.752-14.758,14.46
		c-0.094,0.206-0.167,0.428-0.297,0.609c-0.322,0.453-0.759,0.673-1.31,0.456c-0.569-0.224-0.801-0.671-0.692-1.27
		c0.039-0.218,0.139-0.429,0.232-0.634c3.335-7.315,8.695-12.56,16.085-15.728C320.38,51.732,320.668,51.646,321.142,51.475z"/>
	<path fill-rule="evenodd" clip-rule="evenodd" fill="#FFFFFF" d="M323.885,57.278c-0.043,0.619-0.448,0.902-0.974,1.121
		c-3.287,1.365-6.126,3.365-8.495,6.026c-1.621,1.821-2.897,3.861-3.921,6.072c-0.165,0.356-0.485,0.754-0.826,0.88
		c-0.3,0.109-0.901-0.021-1.06-0.255c-0.227-0.334-0.372-0.966-0.202-1.286c0.955-1.795,1.879-3.633,3.064-5.274
		c2.735-3.785,6.373-6.48,10.683-8.265C323.07,55.917,323.91,56.409,323.885,57.278z"/>
	<path fill-rule="evenodd" clip-rule="evenodd" fill="#FFFFFF" d="M313.818,73.391c-0.661-0.012-1.174-0.62-1.062-1.279
		c0.029-0.171,0.1-0.338,0.172-0.498c2.274-5.013,5.943-8.604,11.009-10.762c0.246-0.104,0.601-0.249,0.782-0.15
		c0.365,0.198,0.806,0.504,0.91,0.856c0.093,0.307-0.207,0.751-0.39,1.106c-0.066,0.127-0.293,0.18-0.454,0.25
		c-4.503,1.926-7.78,5.107-9.794,9.578C314.756,73.011,314.442,73.395,313.818,73.391z"/>
	<path fill-rule="evenodd" clip-rule="evenodd" d="M342.008,80.414c-0.018,5.437-4.397,9.788-9.836,9.774
		c-5.471-0.016-9.823-4.414-9.791-9.892c0.032-5.408,4.485-9.811,9.874-9.762C337.683,70.583,342.027,74.982,342.008,80.414z
		 M335.785,80.362c-0.003-2.005-1.596-3.589-3.602-3.583c-1.991,0.007-3.589,1.615-3.585,3.608c0.004,1.998,1.603,3.587,3.605,3.584
		C334.197,83.968,335.787,82.365,335.785,80.362z"/>
	<path fill-rule="evenodd" clip-rule="evenodd" fill="#FFFFFF" d="M335.785,80.362c0.002,2.003-1.588,3.606-3.581,3.609
		c-2.003,0.003-3.602-1.586-3.605-3.584c-0.004-1.993,1.594-3.602,3.585-3.608C334.189,76.773,335.782,78.357,335.785,80.362z"/>
</g>
</svg>
